<?xml version="1.0" encoding="UTF-8"?>
<svg version="1.1" xmlns="http://www.w3.org/2000/svg" width="512" height="512">
<path d="M0 0 C1.01790619 0.00215515 2.03581238 0.0043103 3.08456421 0.00653076 C17.69363523 0.05620146 32.02575853 0.30709809 46.375 3.3125 C47.34985352 3.51117676 48.32470703 3.70985352 49.32910156 3.91455078 C97.7109774 14.03517194 141.69928269 35.9516877 177.375 70.3125 C178.3640332 71.26068604 178.3640332 71.26068604 179.37304688 72.22802734 C188.86130305 81.37247479 197.6012044 90.66984009 205.375 101.3125 C206.23306152 102.46355017 207.09113451 103.61459177 207.94921875 104.765625 C213.98736829 112.95680614 219.34595521 121.47054105 224.375 130.3125 C224.73948242 130.94430176 225.10396484 131.57610352 225.47949219 132.22705078 C247.08534998 169.97532572 256.85198095 212.74189997 256.6875 255.9375 C256.68534485 256.95540619 256.6831897 257.97331238 256.68096924 259.02206421 C256.63129854 273.63113523 256.38040191 287.96325853 253.375 302.3125 C253.07698486 303.77478027 253.07698486 303.77478027 252.77294922 305.26660156 C242.65232806 353.6484774 220.7358123 397.63678269 186.375 433.3125 C185.74287598 433.97185547 185.11075195 434.63121094 184.45947266 435.31054688 C175.31502521 444.79880305 166.01765991 453.5387044 155.375 461.3125 C154.22394983 462.17056152 153.07290823 463.02863451 151.921875 463.88671875 C143.73224019 469.92427396 135.22961724 475.30707302 126.375 480.3125 C125.66778809 480.7146875 124.96057617 481.116875 124.23193359 481.53125 C101.09654164 494.5566741 75.92537591 503.30551461 49.9375 508.625 C49.21860596 508.77235596 48.49971191 508.91971191 47.7590332 509.0715332 C33.08339502 511.86090125 18.55831162 512.66142619 3.64770508 512.62817383 C0.70811513 512.6250221 -2.2304558 512.64854926 -5.16992188 512.67382812 C-18.54306192 512.71848737 -31.43916711 511.51301542 -44.625 509.3125 C-46.33055054 509.03031616 -46.33055054 509.03031616 -48.07055664 508.74243164 C-91.33802759 500.97044532 -132.38793216 480.98345309 -165.625 452.3125 C-166.37007813 451.67828125 -167.11515625 451.0440625 -167.8828125 450.390625 C-181.38779833 438.57948485 -194.05918743 425.82889772 -204.625 411.3125 C-205.48149066 410.16255169 -206.33826433 409.01281411 -207.1953125 407.86328125 C-213.23534209 399.67315742 -218.61867614 391.16870382 -223.625 382.3125 C-224.0271875 381.60528809 -224.429375 380.89807617 -224.84375 380.16943359 C-237.8691741 357.03404164 -246.61801461 331.86287591 -251.9375 305.875 C-252.08485596 305.15610596 -252.23221191 304.43721191 -252.3840332 303.6965332 C-255.35789088 288.05024391 -255.99800362 272.57681954 -255.9375 256.6875 C-255.93534485 255.66959381 -255.9331897 254.65168762 -255.93096924 253.60293579 C-255.88129854 238.99386477 -255.63040191 224.66174147 -252.625 210.3125 C-252.42632324 209.33764648 -252.22764648 208.36279297 -252.02294922 207.35839844 C-241.90232806 158.9765226 -219.9858123 114.98821731 -185.625 79.3125 C-184.99287598 78.65314453 -184.36075195 77.99378906 -183.70947266 77.31445312 C-174.56502521 67.82619695 -165.26765991 59.0862956 -154.625 51.3125 C-153.47394983 50.45443848 -152.32290823 49.59636549 -151.171875 48.73828125 C-142.98224019 42.70072604 -134.47961724 37.31792698 -125.625 32.3125 C-124.91778809 31.9103125 -124.21057617 31.508125 -123.48193359 31.09375 C-100.34654164 18.0683259 -75.17537591 9.31948539 -49.1875 4 C-48.46860596 3.85264404 -47.74971191 3.70528809 -47.0090332 3.5534668 C-31.36274391 0.57960912 -15.88931954 -0.06050362 0 0 Z " fill="#A5D2EF" transform="translate(255.625,-0.3125)"/>
<path d="M0 0 C3.41359117 1.79771952 5.78392989 1.82242633 9.63428974 1.83697796 C10.31643156 1.84362479 10.99857337 1.85027161 11.70138615 1.85711986 C13.98005158 1.87572651 16.25819083 1.87314625 18.53692341 1.87062359 C20.17311563 1.87964221 21.80930109 1.88996967 23.44547749 1.90150738 C27.88307424 1.92909188 32.32054285 1.93836386 36.75821424 1.94436145 C41.3974082 1.95374133 46.03650629 1.97994442 50.67564106 2.00436687 C59.45861544 2.04804616 68.24157122 2.07658436 77.02462119 2.09969026 C87.02460199 2.12673425 97.02448643 2.17064627 107.02439845 2.21597898 C127.59321887 2.30884574 148.16206814 2.3805172 168.73101521 2.43825054 C168.7592016 6.77695542 168.77941772 11.11560924 168.7928133 15.45437908 C168.79840829 16.92486788 168.80603696 18.3953506 168.81588459 19.86581707 C169.2227076 82.25731077 141.71690799 143.80739182 98.73101521 188.43825054 C98.09889118 189.09760601 97.46676716 189.75696148 96.81548786 190.43629742 C87.67104042 199.9245536 78.37367511 208.66445494 67.73101521 216.43825054 C66.57996504 217.29631206 65.42892343 218.15438505 64.27789021 219.01246929 C56.08825539 225.05002451 47.58563245 230.43282356 38.73101521 235.43825054 C37.67019733 236.04153179 37.67019733 236.04153179 36.5879488 236.65700054 C13.45255685 249.68242464 -11.71860889 258.43126515 -37.70648479 263.75075054 C-38.42537884 263.8981065 -39.14427288 264.04546246 -39.88495159 264.19728374 C-54.56058978 266.98665179 -69.08567318 267.78717673 -83.99627972 267.75392437 C-86.93586966 267.75077264 -89.8744406 267.7742998 -92.81390667 267.79957867 C-106.18704672 267.84423791 -119.08315191 266.63876596 -132.26898479 264.43825054 C-133.97453533 264.1560667 -133.97453533 264.1560667 -135.71454144 263.86818218 C-178.98201239 256.09619586 -220.03191695 236.10920363 -253.26898479 207.43825054 C-254.01406292 206.80403179 -254.75914104 206.16981304 -255.52679729 205.51637554 C-269.03178312 193.7052354 -281.70317222 180.95464826 -292.26898479 166.43825054 C-293.12547546 165.28830223 -293.98224912 164.13856466 -294.83929729 162.98903179 C-300.87932688 154.79890796 -306.26266093 146.29445437 -311.26898479 137.43825054 C-311.67117229 136.73103863 -312.07335979 136.02382671 -312.48773479 135.29518414 C-327.10856836 109.32607077 -336.36366993 80.78699878 -341.26898479 51.43825054 C-341.49457073 50.15305523 -341.72015667 48.86785992 -341.95257854 47.54371929 C-344.17046818 32.44677397 -343.26898479 17.92902957 -343.26898479 2.43825054 C-288.81898479 2.43825054 -234.36898479 2.43825054 -178.26898479 2.43825054 C-181.73398479 10.85325054 -181.73398479 10.85325054 -185.26898479 19.43825054 C-185.94026409 21.43806988 -186.61154339 23.43788921 -187.30316448 25.49830914 C-190.67064293 32.71071386 -197.88704611 35.29034576 -204.72210979 38.47731304 C-206.14896115 39.17358353 -207.57429615 39.87296923 -208.99817181 40.57530499 C-212.72527661 42.40380203 -216.47077339 44.19085845 -220.22198772 45.9692564 C-224.05136029 47.79307725 -227.86269588 49.65378307 -231.67523479 51.51246929 C-235.9532003 53.5963595 -240.23269316 55.67632416 -244.52612591 57.72819805 C-245.17489697 58.03869091 -245.82366802 58.34918377 -246.49209881 58.6690855 C-248.24481295 59.50682335 -249.99870989 60.34208528 -251.75268841 61.17717266 C-254.14799937 62.21215031 -254.14799937 62.21215031 -255.26898479 63.43825054 C-191.41398479 63.93325054 -191.41398479 63.93325054 -126.26898479 64.43825054 C-125.27898479 60.47825054 -124.28898479 56.51825054 -123.26898479 52.43825054 C-122.61045339 50.16002298 -121.93139018 47.88746433 -121.21820354 45.62575054 C-120.66906292 43.87246441 -120.66906292 43.87246441 -120.10882854 42.08375835 C-119.72855511 40.88074078 -119.34828167 39.6777232 -118.95648479 38.43825054 C-118.15744598 35.89164071 -117.35906955 33.34483651 -116.56195354 30.79762554 C-116.17314007 29.55561382 -115.78432659 28.3136021 -115.38373089 27.03395367 C-113.54248406 21.09486404 -111.77351743 15.13426757 -110.03338909 9.16481304 C-108.37549898 3.54476473 -108.37549898 3.54476473 -107.26898479 2.43825054 C-105.68037694 2.34670039 -104.0877611 2.32362994 -102.49652386 2.32814312 C-101.47745953 2.32756405 -100.4583952 2.32698498 -99.40845013 2.32638836 C-97.73839916 2.32955311 -97.73839916 2.32955311 -96.03460979 2.33278179 C-93.68173613 2.31930988 -91.32887095 2.30428388 -88.97601604 2.28785992 C-85.26331812 2.26515303 -81.55156602 2.25064031 -77.83880901 2.26320171 C-58.67460261 2.54146343 -58.67460261 2.54146343 -41.26898479 -4.56174946 C-28.84097199 -9.60445782 -11.01393288 -7.58092507 0 0 Z " fill="#6E9BE0" transform="translate(343.2689847946167,244.561749458313)"/>
<path d="M0 0 C1.1002652 -0.01829865 2.2005304 -0.03659729 3.33413696 -0.05545044 C24.33522467 -0.33232793 24.33522467 -0.33232793 32.8125 7.875 C34.74768285 8.98322273 36.68477279 10.08813261 38.625 11.1875 C44.3068296 14.93351769 48.06117622 19.52667242 52.0625 25 C52.63589111 25.77641846 53.20928223 26.55283691 53.80004883 27.3527832 C56.15800895 30.73282765 57.6922126 33.13877288 58.36328125 37.24609375 C57.7362813 40.23879566 57.2402287 41.09944158 54.75 42.8125 C54.18152344 43.23402344 53.61304688 43.65554687 53.02734375 44.08984375 C49.53512419 45.32782635 47.40426289 44.80296306 43.8125 43.875 C40.4509551 42.14109708 37.33161657 40.09771527 34.1875 38 C32.52880624 36.91902466 30.86995667 35.83828836 29.2109375 34.7578125 C28.44620117 34.25411133 27.68146484 33.75041016 26.89355469 33.23144531 C24.56909961 31.71635001 22.20877727 30.27364347 19.8125 28.875 C19.11016332 33.98021193 19.11016332 33.98021193 20.98291016 38.53417969 C22.62692532 40.06299603 24.32020482 41.41510367 26.125 42.75 C26.71990234 43.22179687 27.31480469 43.69359375 27.92773438 44.1796875 C30.48734578 46.19305781 33.10287946 48.0685863 35.8125 49.875 C35.8125 51.875 35.8125 51.875 33.6875 54.125 C32.73875 54.7025 31.79 55.28 30.8125 55.875 C14.7915246 51.69062333 -0.93903408 42.93824414 -12.1875 30.875 C-12.8475 30.545 -13.5075 30.215 -14.1875 29.875 C-14.1875 29.215 -14.1875 28.555 -14.1875 27.875 C-14.7637915 28.05562988 -15.34008301 28.23625977 -15.93383789 28.42236328 C-26.79418034 31.81227201 -37.6590153 35.07405451 -48.6875 37.875 C-56.27734539 39.80457816 -63.77391557 41.91854405 -71.25 44.25 C-81.48030337 47.43510659 -91.79947613 50.22546029 -102.16040039 52.94897461 C-110.71627624 55.201218 -119.23462078 57.55304245 -127.71923828 60.06079102 C-128.49251465 60.28694092 -129.26579102 60.51309082 -130.0625 60.74609375 C-130.71992188 60.94130615 -131.37734375 61.13651855 -132.0546875 61.33764648 C-134.74240159 62.01480522 -137.45279022 62.43005943 -140.1875 62.875 C-140.35955963 63.59500687 -140.53161926 64.31501373 -140.70889282 65.05683899 C-142.55352967 72.62231863 -144.69649884 80.05065658 -147.0234375 87.48046875 C-147.38466705 88.6439534 -147.74589661 89.80743805 -148.11807251 91.00617981 C-149.26310893 94.69259449 -150.41253308 98.37762072 -151.5625 102.0625 C-153.07207169 106.90961028 -154.57970813 111.75731886 -156.0859375 116.60546875 C-156.44876831 117.7727803 -156.81159912 118.94009186 -157.1854248 120.14277649 C-159.35222231 127.1303873 -161.46901477 134.12952781 -163.51333618 141.15386963 C-165.57413235 148.23220325 -167.74928662 155.27264181 -169.9375 162.3125 C-170.33991143 163.61521347 -170.74225527 164.91794782 -171.14453125 166.22070312 C-171.52480469 167.44595703 -171.90507812 168.67121094 -172.296875 169.93359375 C-172.63686523 171.02986084 -172.97685547 172.12612793 -173.32714844 173.25561523 C-174.1875 175.875 -174.1875 175.875 -175.1875 177.875 C-218.4175 177.875 -261.6475 177.875 -306.1875 177.875 C-302.35002403 174.80501922 -299.4287718 172.80819283 -295.14379883 170.66699219 C-294.56106705 170.37380096 -293.97833527 170.08060974 -293.37794495 169.77853394 C-291.46970656 168.8203933 -289.5573001 167.87093471 -287.64453125 166.921875 C-286.31104934 166.25539358 -284.97777503 165.58849666 -283.6446991 164.92120361 C-280.8601369 163.52896723 -278.07356436 162.14086804 -275.28540039 160.75585938 C-271.70738707 158.97823986 -268.13390856 157.1917195 -264.56178761 155.40229416 C-261.81388865 154.02667716 -259.06401518 152.6550479 -256.31348228 151.28470612 C-254.99440895 150.62709628 -253.67587545 149.96840246 -252.35788918 149.30861664 C-250.52153871 148.39025664 -248.68268517 147.47712251 -246.84301758 146.56542969 C-245.79664627 146.04454773 -244.75027496 145.52366577 -243.67219543 144.98699951 C-241.1875 143.875 -241.1875 143.875 -239.1875 143.875 C-239.01267593 143.32030029 -238.83785187 142.76560059 -238.6577301 142.1940918 C-236.93475376 136.86048024 -234.93004317 131.77703462 -232.58984375 126.6875 C-232.24350388 125.92386139 -231.897164 125.16022278 -231.54032898 124.3734436 C-230.79452911 122.72967563 -230.04684044 121.08676354 -229.29742432 119.44464111 C-227.26779335 114.99623186 -225.2529942 110.54111871 -223.23828125 106.0859375 C-222.82116882 105.16412689 -222.4040564 104.24231628 -221.9743042 103.29257202 C-217.89557516 94.26166118 -213.9172258 85.18790722 -209.95214844 76.10665894 C-207.72592934 71.01474312 -205.485115 65.92923017 -203.24545288 60.84321594 C-201.32260754 56.47256299 -199.41702332 52.09517632 -197.53118896 47.70843506 C-196.24674236 44.73536399 -194.93374381 41.77493786 -193.625 38.8125 C-193.19719238 37.79687988 -192.76938477 36.78125977 -192.32861328 35.73486328 C-188.72845322 27.70544055 -183.89828942 22.17058633 -175.91845703 18.28198242 C-169.17385748 15.92459596 -161.89767445 15.59068927 -154.83203125 14.859375 C-153.19446345 14.68178028 -151.55700413 14.50318283 -149.91964722 14.32365417 C-145.52675734 13.84453919 -141.13262907 13.37793656 -136.73806381 12.91447067 C-129.3512989 12.13353496 -121.96636031 11.3353399 -114.5812397 10.53903008 C-112.71558466 10.33807809 -110.84987562 10.13762687 -108.98411369 9.93766975 C-97.00151311 8.65267139 -85.03844353 7.26990574 -73.0859375 5.73046875 C-48.70692998 2.61654588 -24.597541 0.19929498 0 0 Z " fill="#FED6AF" transform="translate(392.1875,131.125)"/>
<path d="M0 0 C10.36399082 7.92742344 16.61164729 18.37270902 20.359375 30.8046875 C20.55273438 31.4234375 20.74609375 32.0421875 20.9453125 32.6796875 C21.54423362 35.75339588 21.57053764 38.73754325 21.609375 41.8671875 C21.63515625 43.09566406 21.6609375 44.32414062 21.6875 45.58984375 C21.359375 49.8046875 21.359375 49.8046875 18.359375 60.8046875 C-3.750625 60.8046875 -25.860625 60.8046875 -48.640625 60.8046875 C-46.640625 56.8046875 -46.640625 56.8046875 -43.640625 54.8046875 C-42.650625 54.8046875 -41.660625 54.8046875 -40.640625 54.8046875 C-42.290625 52.1646875 -43.940625 49.5246875 -45.640625 46.8046875 C-46.23875 47.2996875 -46.836875 47.7946875 -47.453125 48.3046875 C-52.16702056 50.52299129 -56.51739957 50.46349864 -61.640625 49.8046875 C-67.12031808 47.12572644 -69.87302504 41.05086591 -72.640625 35.8046875 C-73.89394653 32.0447229 -74.40117872 28.69275183 -73.640625 24.8046875 C-71.60068331 21.32947739 -69.36671359 18.34638551 -65.4375 17.11328125 C-64.84453125 17.01144531 -64.2515625 16.90960938 -63.640625 16.8046875 C-64.1459375 16.03382813 -64.65125 15.26296875 -65.171875 14.46875 C-65.8215625 13.46585937 -66.47125 12.46296875 -67.140625 11.4296875 C-67.7903125 10.43195313 -68.44 9.43421875 -69.109375 8.40625 C-70.640625 5.8046875 -70.640625 5.8046875 -70.640625 3.8046875 C-46.81738778 -10.02815992 -24.74957375 -17.0610967 0 0 Z " fill="#FE5151" transform="translate(349.640625,248.1953125)"/>
<path d="M0 0 C1.29971741 -0.00571014 2.59943481 -0.01142029 3.9385376 -0.01730347 C5.38734427 -0.01854889 6.83615104 -0.01967397 8.28495789 -0.02069092 C9.80421571 -0.02531805 11.32347237 -0.03034257 12.84272766 -0.03573608 C16.97711017 -0.04887285 21.11147643 -0.05530761 25.24587655 -0.05974674 C27.82792331 -0.06267562 30.4099656 -0.06678009 32.99201012 -0.07125092 C41.06779501 -0.08492967 49.14356974 -0.09459428 57.21936542 -0.09845281 C66.5468128 -0.10293359 75.87411363 -0.12048082 85.20151645 -0.1494534 C92.40752314 -0.17106072 99.61348858 -0.18115659 106.81952733 -0.18249393 C111.12502526 -0.18354271 115.43038551 -0.1894659 119.73584938 -0.20731354 C123.78649349 -0.22377768 127.83689618 -0.22595787 131.8875618 -0.21717453 C133.37386025 -0.21640324 134.8601716 -0.22075899 136.34643745 -0.23063278 C138.37642678 -0.24332715 140.40651282 -0.23569291 142.43652344 -0.22705078 C143.57234014 -0.22851734 144.70815683 -0.2299839 145.87839222 -0.2314949 C149.3119454 0.18993064 151.15493974 1.07612722 153.90873718 3.14044189 C155.90873718 6.14044189 155.90873718 6.14044189 155.78373718 9.57794189 C154.83907786 13.42405486 153.96831302 14.72986699 150.90873718 17.14044189 C148.14577221 18.52192438 145.91084143 18.2759626 142.81747437 18.28761292 C140.86789825 18.29834587 140.86789825 18.29834587 138.87893677 18.30929565 C137.43013024 18.31213605 135.98132346 18.31484777 134.53251648 18.31744385 C133.0132583 18.32370735 131.49400166 18.33035404 129.9747467 18.33735657 C125.84036909 18.3547763 121.70600304 18.36532088 117.57159781 18.3735621 C114.98955124 18.37871 112.40750828 18.38478581 109.82546425 18.39107323 C101.74968215 18.41012768 93.67390921 18.4243585 85.59810895 18.4326852 C76.27061838 18.4424608 66.94336492 18.46878757 57.61595792 18.50918609 C50.40995222 18.53932733 43.20401456 18.55415215 35.99794704 18.55746621 C31.69239943 18.5598189 27.38710507 18.5688076 23.08162498 18.59392738 C19.03093048 18.61717858 14.98065646 18.62145344 10.92991257 18.611166 C9.44360647 18.61066981 7.95727988 18.61701481 6.47103691 18.63072205 C4.44108501 18.64839548 2.41095117 18.63896435 0.38095093 18.62818909 C-0.75486577 18.63057744 -1.89068247 18.63296579 -3.06091785 18.63542652 C-6.76554202 18.03030333 -8.42416221 16.72909757 -11.09126282 14.14044189 C-12.517885 11.28719752 -12.40160149 9.3058964 -12.09126282 6.14044189 C-8.45678691 0.68872804 -6.36545509 0.01668751 0 0 Z " fill="#5C83CE" transform="translate(65.09126281738281,308.85955810546875)"/>
<path d="M0 0 C54.45 0 108.9 0 165 0 C158 17 158 17 157 18 C154.97505378 18.09676414 152.94667458 18.12186986 150.91941833 18.12025452 C149.95646012 18.12153615 149.95646012 18.12153615 148.9740482 18.12284368 C146.80745946 18.12450021 144.64094693 18.11897433 142.47436523 18.11352539 C140.92743939 18.11324353 139.38051341 18.11340123 137.83358765 18.1139679 C133.62095968 18.11425592 129.40835994 18.10835849 125.19573855 18.10139394 C120.79814212 18.09516112 116.40054511 18.09455666 112.00294495 18.09336853 C103.66959487 18.090255 95.33625785 18.08204132 87.00291353 18.07201904 C77.51818746 18.06085857 68.03346078 18.05534762 58.54872978 18.05032361 C39.0324789 18.03985873 19.51624098 18.02205847 0 18 C0 12.06 0 6.12 0 0 Z " fill="#5D84CE" transform="translate(0,247)"/>
<path d="M0 0 C54.12 0 108.24 0 164 0 C164 5.94 164 11.88 164 18 C144.85892191 18.2549131 125.71832496 18.45107701 106.57589817 18.56993389 C97.68713572 18.6265949 88.79944886 18.70380426 79.91137695 18.82983398 C72.16213513 18.93966288 64.41367233 19.01048371 56.66367382 19.03497344 C52.56165683 19.04928479 48.4618679 19.08277533 44.36056709 19.16303062 C40.49468179 19.23806179 36.63192706 19.26066054 32.76538277 19.24418449 C31.35155166 19.24719521 29.9376091 19.26887562 28.52441025 19.31126022 C17.85246984 19.61546071 17.85246984 19.61546071 13.24171257 15.59461403 C10.84092712 12.64851379 10.84092712 12.64851379 8.85192776 9.71635151 C6.3695035 6.07520684 3.40642459 3.75413052 0 1 C0 0.67 0 0.34 0 0 Z " fill="#5D84CE" transform="translate(348,247)"/>
<path d="M0 0 C1.36207752 -0.00677899 2.72414586 -0.01568371 4.0861969 -0.02655029 C7.77849674 -0.04931771 11.47009698 -0.04051853 15.16240883 -0.02465487 C19.02914926 -0.01198232 22.89583042 -0.02373972 26.76257324 -0.03158569 C33.25572447 -0.04067837 39.7485912 -0.0287046 46.24169922 -0.00488281 C53.74513978 0.02232803 61.24790103 0.01351357 68.75132513 -0.01401484 C75.19736969 -0.03671602 81.64320993 -0.03990115 88.08928156 -0.02682149 C91.93759958 -0.01903241 95.78559845 -0.01797009 99.63389587 -0.03450394 C103.2522805 -0.0489645 106.86979068 -0.03889975 110.48808098 -0.01003265 C112.4467995 -0.00028422 114.40559211 -0.01510867 116.36427307 -0.03067017 C125.93657888 0.08475865 125.93657888 0.08475865 129.03625488 3.0585022 C130.66683306 5.51855219 131.45705762 6.73636211 131.43945312 9.64697266 C131.46394531 10.28634766 131.4884375 10.92572266 131.51367188 11.58447266 C130.22218797 15.08141368 127.98141664 16.99313593 124.75195312 18.64697266 C120.36903559 19.39960175 116.02794342 19.32987874 111.58984375 19.29394531 C110.24894526 19.30072671 108.90805609 19.30963279 107.56718445 19.32049561 C103.9368538 19.34323436 100.30723588 19.33447578 96.67689323 19.31860018 C92.87201945 19.3059127 89.06720537 19.31768917 85.2623291 19.32553101 C78.87350545 19.33461935 72.4849711 19.32266132 66.09619141 19.29882812 C58.71714611 19.27161809 51.33879161 19.28043286 43.95976305 19.30796015 C37.616441 19.33067372 31.27332653 19.33384043 24.92997694 19.32076681 C21.14479727 19.31298452 17.35994196 19.31189663 13.57478333 19.32844925 C10.01547332 19.34292789 6.45705109 19.33281226 2.89783669 19.30397797 C0.97391088 19.29424799 -0.95009031 19.30903857 -2.87397766 19.32461548 C-12.30788809 19.20918722 -12.30788809 19.20918722 -16.02307129 16.23544312 C-19.05290453 12.71062518 -19.05290453 12.71062518 -18.93554688 9.64697266 C-18.93941406 9.00759766 -18.94328125 8.36822266 -18.94726562 7.70947266 C-15.90568993 -1.26232605 -8.03338075 -0.06382428 0 0 Z " fill="#5C83CE" transform="translate(248.248046875,308.35302734375)"/>
<path d="M0 0 C3.19309674 3.09918213 5.67815229 6.18553591 8 10 C8 10.66 8 11.32 8 12 C6 13.33333333 4 14.66666667 2 16 C-0.7220998 18.54062648 -0.98232496 19.87185594 -1.5 23.625 C-1.24299396 30.17253494 2.18537307 36.45794922 6.75 41.0625 C7.86375 42.0215625 7.86375 42.0215625 9 43 C9.33 43.33 9.66 43.66 10 44 C15.88261584 44.51324836 21.22979181 44.9477585 26 41 C26.83905565 42.12073862 27.67107831 43.24674547 28.5 44.375 C29.19609375 45.31472656 29.19609375 45.31472656 29.90625 46.2734375 C31 48 31 48 31 50 C29.20963542 50.9765625 27.41927083 51.953125 25.62890625 52.9296875 C23.83381685 53.91410024 23.83381685 53.91410024 23 56 C3.53 56 -15.94 56 -36 56 C-36 39.79859294 -32.1881141 26.49852224 -21.0625 14.375 C-14.8639165 8.48958535 -7.33179208 4.30911461 0 0 Z " fill="#FCD5AE" transform="translate(278,253)"/>
<path d="M0 0 C1.19824219 1.65454102 1.19824219 1.65454102 2.546875 4.00390625 C3.05492676 4.87821289 3.56297852 5.75251953 4.08642578 6.65332031 C4.63540527 7.61334961 5.18438477 8.57337891 5.75 9.5625 C6.92829045 11.59065603 8.10802457 13.6179739 9.2890625 15.64453125 C9.90040039 16.69592285 10.51173828 17.74731445 11.14160156 18.83056641 C14.07831344 23.83902589 17.09797322 28.79576896 20.125 33.75 C20.7029834 34.69842773 21.2809668 35.64685547 21.87646484 36.62402344 C24.67893554 41.21821181 27.49436471 45.80395021 30.328125 50.37890625 C30.84358887 51.21389648 31.35905273 52.04888672 31.89013672 52.90917969 C32.85660373 54.47345152 33.82679348 56.03543144 34.80126953 57.59472656 C38 62.77640245 38 62.77640245 38 65 C27.44 65 16.88 65 6 65 C8 61 8 61 11 59 C11.99 59 12.98 59 14 59 C12.35 56.36 10.7 53.72 9 51 C8.401875 51.495 7.80375 51.99 7.1875 52.5 C2.47360444 54.71830379 -1.87677457 54.65881114 -7 54 C-12.47969308 51.32103894 -15.23240004 45.24617841 -18 40 C-19.25332153 36.2400354 -19.76055372 32.88806433 -19 29 C-16.96005831 25.52478989 -14.72608859 22.54169801 -10.796875 21.30859375 C-10.20390625 21.20675781 -9.6109375 21.10492188 -9 21 C-9.5053125 20.22914063 -10.010625 19.45828125 -10.53125 18.6640625 C-11.1809375 17.66117187 -11.830625 16.65828125 -12.5 15.625 C-13.1496875 14.62726563 -13.799375 13.62953125 -14.46875 12.6015625 C-16 10 -16 10 -16 8 C-13.71125827 6.66141476 -11.41930344 5.32898986 -9.125 4 C-8.47402344 3.6184375 -7.82304687 3.236875 -7.15234375 2.84375 C-2.2265625 0 -2.2265625 0 0 0 Z " fill="#B43D3D" transform="translate(295,244)"/>
<path d="M0 0 C1.45678891 -0.00082955 2.91357772 -0.00329219 4.37036133 -0.00730896 C7.41679206 -0.01016077 10.46248506 0.00447211 13.50878906 0.03198242 C17.40280792 0.06606552 21.29550847 0.06004189 25.18959045 0.04131985 C28.19578938 0.03072291 31.2016845 0.03971181 34.20785522 0.05470467 C35.64308773 0.05986727 37.07835222 0.0594281 38.51358032 0.05315971 C40.52341844 0.04767598 42.5332719 0.07100643 44.54296875 0.09545898 C46.25456177 0.10475685 46.25456177 0.10475685 48.00073242 0.11424255 C51.90302146 0.74446313 54.10862436 2.19559157 57.1875 4.62890625 C58.46556656 7.28538345 58.55174289 9.71496316 58.1875 12.62890625 C56.42285939 15.48884103 55.19184303 17.12673474 52.1875 18.62890625 C50.05980405 18.74633989 47.92841691 18.79872029 45.79760742 18.82177734 C45.14210403 18.82995483 44.48660065 18.83813232 43.81123352 18.84655762 C41.63848789 18.87140187 39.46580756 18.88792536 37.29296875 18.90234375 C36.55082941 18.90766743 35.80869007 18.9129911 35.04406166 18.9184761 C31.11556659 18.94520407 27.18710325 18.96457964 23.25854492 18.97900391 C19.20293293 18.99564731 15.14813429 19.04042212 11.0928297 19.09137535 C7.97267231 19.12504989 4.8527079 19.13658145 1.73238564 19.14223099 C0.23764139 19.14894349 -1.25709015 19.16416585 -2.75165749 19.1881218 C-4.84658469 19.21978353 -6.93931968 19.21981056 -9.03442383 19.21240234 C-10.82073967 19.22453262 -10.82073967 19.22453262 -12.6431427 19.23690796 C-16.73444766 18.45204208 -18.21373098 16.80669868 -20.8125 13.62890625 C-21.51171875 11.56640625 -21.51171875 11.56640625 -21.5 9.62890625 C-21.52449219 8.98953125 -21.54898437 8.35015625 -21.57421875 7.69140625 C-18.13965081 -1.60834694 -8.17182716 -0.08408462 0 0 Z " fill="#5C83CE" transform="translate(303.8125,343.37109375)"/>
<path d="M0 0 C1.14491409 -0.00960754 2.28982819 -0.01921509 3.46943665 -0.02911377 C4.712108 -0.03336365 5.95477936 -0.03761353 7.23510742 -0.04199219 C9.14413094 -0.0505423 9.14413094 -0.0505423 11.09172058 -0.05926514 C13.78937356 -0.06872649 16.48691498 -0.07561733 19.18457031 -0.07910156 C22.63464051 -0.08457899 26.08431458 -0.10859039 29.53426075 -0.13707352 C32.83034623 -0.16022687 36.12645201 -0.16215173 39.42260742 -0.16699219 C41.27750542 -0.18551239 41.27750542 -0.18551239 43.1698761 -0.20440674 C44.32424667 -0.20140564 45.47861725 -0.19840454 46.66796875 -0.1953125 C47.68119705 -0.19895813 48.69442535 -0.20260376 49.73835754 -0.20635986 C53.02750888 0.22692363 54.86977477 1.20134285 57.52807617 3.16113281 C59.86976381 6.67366427 60.02431295 8.02582637 59.52807617 12.16113281 C57.72813843 14.86103943 56.44430317 16.70301931 53.52807617 18.16113281 C51.6759119 18.27254058 49.81978234 18.32037753 47.96435547 18.33813477 C46.2169532 18.35738762 46.2169532 18.35738762 44.43424988 18.37702942 C42.53743217 18.38810982 42.53743217 18.38810982 40.60229492 18.39941406 C39.30741653 18.40748581 38.01253815 18.41555756 36.67842102 18.4238739 C33.93372732 18.43890103 31.1890595 18.44873871 28.44433594 18.45629883 C24.93361849 18.46735605 21.42353616 18.50174729 17.91304302 18.54147053 C14.5594858 18.5739497 11.20599728 18.57841676 7.85229492 18.58691406 C5.96458626 18.61317619 5.96458626 18.61317619 4.03874207 18.63996887 C2.86435074 18.6370433 1.68995941 18.63411774 0.47998047 18.63110352 C-0.55101273 18.63696976 -1.58200592 18.642836 -2.64424133 18.64888 C-6.2121055 18.03345881 -7.88244847 16.63844814 -10.47192383 14.16113281 C-11.89854601 11.30788844 -11.78226251 9.32658732 -11.47192383 6.16113281 C-8.02695612 0.99368124 -6.04378923 0.04082441 0 0 Z " fill="#5C83CE" transform="translate(258.471923828125,449.8388671875)"/>
<path d="M0 0 C0.98459702 -0.0127597 1.96919403 -0.02551941 2.98362732 -0.03866577 C4.04098587 -0.04089142 5.09834442 -0.04311707 6.18774414 -0.04541016 C7.28002823 -0.05206696 8.37231232 -0.05872375 9.49769592 -0.06558228 C11.80671505 -0.07570309 14.1157634 -0.08039947 16.42480469 -0.08007812 C19.95630052 -0.0844521 23.48654745 -0.12078159 27.01782227 -0.15869141 C29.26195862 -0.16455948 31.5061009 -0.16852893 33.75024414 -0.17041016 C34.80557846 -0.18478119 35.86091278 -0.19915222 36.94822693 -0.21395874 C44.24376643 -0.16851062 44.24376643 -0.16851062 48.17041016 2.10839844 C50.83127439 5.22173847 51.17591575 7.21558192 51.03540039 11.29052734 C49.3116283 14.31895831 47.19492736 16.71076386 44.03540039 18.29052734 C42.48960574 18.40058344 40.93925228 18.44960288 39.38964844 18.4675293 C38.42492111 18.48036453 37.46019379 18.49319977 36.4662323 18.50642395 C35.42042496 18.51381088 34.37461761 18.52119781 33.29711914 18.52880859 C32.2242012 18.53688034 31.15128326 18.54495209 30.04585266 18.55326843 C27.77195862 18.56711595 25.49804372 18.5778351 23.22412109 18.58569336 C19.74740177 18.60290604 16.27163319 18.64678722 12.79516602 18.69091797 C10.58749073 18.70104469 8.37980734 18.70956086 6.17211914 18.71630859 C5.13238449 18.73381668 4.09264984 18.75132477 3.02140808 18.7693634 C-4.21134808 18.74764274 -4.21134808 18.74764274 -8.09814453 16.38891602 C-10.3873101 13.81528906 -10.92671407 12.87143901 -11.15209961 9.41552734 C-10.96695452 6.3297758 -10.7430027 4.78029167 -8.96459961 2.29052734 C-5.91120589 0.40578669 -3.55949789 0.03139739 0 0 Z " fill="#5C83CE" transform="translate(222.964599609375,414.70947265625)"/>
<path d="M0 0 C1.06488647 -0.00478363 2.12977295 -0.00956726 3.22692871 -0.01449585 C5.4727527 -0.01789014 7.71862642 -0.00872091 9.96435547 0.01220703 C13.39533003 0.0389773 16.82303304 0.01244105 20.25390625 -0.01953125 C22.44011136 -0.01622707 24.62631445 -0.00982067 26.8125 0 C27.83452515 -0.01012115 28.85655029 -0.02024231 29.9095459 -0.03067017 C34.51497799 0.04484533 37.87174557 0.11962141 41.55200195 3.07666016 C44.71301104 6.55072158 44.71301104 6.55072158 44.59375 9.6640625 C44.59955078 10.623125 44.59955078 10.623125 44.60546875 11.6015625 C43.42643005 15.07939731 41.84145945 16.43233673 38.90625 18.6640625 C35.08784007 19.42021032 31.31988115 19.36470934 27.4375 19.328125 C25.76790222 19.33530045 25.76790222 19.33530045 24.0645752 19.34262085 C21.71442245 19.34601893 19.36422238 19.33682313 17.01416016 19.31591797 C13.41852338 19.28915386 9.82600852 19.31567184 6.23046875 19.34765625 C3.94530561 19.34435214 1.66014442 19.33794589 -0.625 19.328125 C-1.69907104 19.33824615 -2.77314209 19.34836731 -3.87976074 19.35879517 C-11.33384031 19.2418441 -11.33384031 19.2418441 -15.2668457 16.25146484 C-17.0125389 13.7790799 -17.79925341 12.64062562 -17.78125 9.6640625 C-17.80574219 9.0246875 -17.83023437 8.3853125 -17.85546875 7.7265625 C-14.88143095 -0.32621678 -7.25626163 -0.07185904 0 0 Z " fill="#5C83CE" transform="translate(397.09375,343.3359375)"/>
<path d="M0 0 C0.96472733 -0.01283524 1.92945465 -0.02567047 2.92341614 -0.03889465 C4.49212715 -0.04997505 4.49212715 -0.04997505 6.0925293 -0.0612793 C7.16544724 -0.06935104 8.23836517 -0.07742279 9.34379578 -0.08573914 C11.61768982 -0.09958665 13.89160471 -0.11030581 16.16552734 -0.11816406 C19.64224666 -0.13537674 23.11801524 -0.17925793 26.59448242 -0.22338867 C28.80215771 -0.23351539 31.00984109 -0.24203156 33.2175293 -0.2487793 C34.25726395 -0.26628738 35.2969986 -0.28379547 36.36824036 -0.30183411 C43.60099652 -0.28011344 43.60099652 -0.28011344 47.48779297 2.07861328 C49.94911953 4.84579468 50.31882687 5.79445327 50.66674805 9.55200195 C50.35424805 13.17700195 50.35424805 13.17700195 48.54174805 15.55200195 C45.24826122 17.99859217 42.57818773 18.30951769 38.5949707 18.36987305 C37.63031891 18.38593597 36.66566711 18.4019989 35.67178345 18.41854858 C31.27037326 18.46305976 26.86911183 18.50404489 22.4675293 18.52709961 C20.14548736 18.54367634 17.82349681 18.5709886 15.50170898 18.60913086 C12.1528071 18.66385148 8.80509906 18.68576489 5.45581055 18.70043945 C4.41921295 18.72310883 3.38261536 18.7457782 2.31460571 18.76913452 C-4.89577965 18.74796996 -4.89577965 18.74796996 -8.80029297 15.77539062 C-11.64707003 11.76715563 -11.3352233 10.00330141 -10.64575195 5.17700195 C-7.4858652 1.06914918 -5.03661236 0.05826549 0 0 Z " fill="#86B3EF" transform="translate(196.645751953125,343.822998046875)"/>
<path d="M0 0 C1.36995117 -0.00361794 1.36995117 -0.00361794 2.76757812 -0.00730896 C4.69405469 -0.00633165 6.62055973 0.00703432 8.546875 0.03198242 C11.49055674 0.06629617 14.43123589 0.05263472 17.375 0.03320312 C19.25001274 0.04010186 21.12501775 0.04977448 23 0.0625 C24.31581055 0.0550602 24.31581055 0.0550602 25.65820312 0.04747009 C29.7280561 0.12565427 31.97649493 0.3144912 35.53125 2.44946289 C38.2678712 5.47895414 38.5 7.58790527 38.5 11.62890625 C36.86759932 15.49511839 35.32157033 17.05457942 31.5 18.62890625 C29.53407288 18.89633179 29.53407288 18.89633179 27.45336914 18.91943359 C26.66897964 18.9321933 25.88459015 18.944953 25.07643127 18.95809937 C23.81850014 18.96143784 23.81850014 18.96143784 22.53515625 18.96484375 C21.22967079 18.97482895 21.22967079 18.97482895 19.89781189 18.98501587 C18.0595816 18.99512763 16.22131471 18.99983335 14.38305664 18.99951172 C11.57571806 19.00388566 8.76995126 19.04022168 5.96289062 19.078125 C4.17448453 19.08399339 2.38607099 19.08796263 0.59765625 19.08984375 C-0.23894028 19.10421478 -1.0755368 19.11858582 -1.93748474 19.13339233 C-5.98770551 19.10174695 -8.003255 18.943502 -11.50610352 16.72509766 C-14.08020325 14.01893623 -14.44916256 13.07797031 -14.875 9.31640625 C-14.5 5.62890625 -14.5 5.62890625 -12.5703125 2.93774414 C-8.33719652 -0.24550791 -5.16425605 -0.07805317 0 0 Z " fill="#86B3EF" transform="translate(332.5,414.37109375)"/>
<path d="M0 0 C7.00732234 2.95864721 11.06408066 10.2578295 14 17 C14.67751513 21.4414881 14.37978924 23.29467713 12.25 27.25 C9.54861856 30.55168843 7.68348471 32.72150998 3.37890625 33.43359375 C-4.09190922 33.44395549 -4.09190922 33.44395549 -7.8125 31.625 C-13.03431768 25.35881878 -17.47224845 18.5163031 -17.42578125 10.13671875 C-16.64365115 6.21171725 -13.91214543 3.60282428 -11 1 C-7.54849768 -0.72575116 -3.7810938 -0.36104194 0 0 Z " fill="#653D46" transform="translate(293,265)"/>
<path d="M0 0 C1.35568336 0.00333092 1.35568336 0.00333092 2.73875427 0.00672913 C3.75973709 0.00680466 4.78071991 0.00688019 5.8326416 0.00695801 C6.94304306 0.01211929 8.05344452 0.01728058 9.19749451 0.02259827 C10.89336952 0.02472069 10.89336952 0.02472069 12.62350464 0.02688599 C16.25105891 0.03250433 19.8785525 0.04505994 23.50608826 0.05775452 C25.95856133 0.06276715 28.41103536 0.06733047 30.86351013 0.07142639 C36.89022371 0.08247971 42.91690165 0.09923568 48.94358826 0.12025452 C46.38926631 2.81197889 43.94339894 4.91647364 40.75608826 6.81166077 C39.97491638 7.28152405 39.19374451 7.75138733 38.38890076 8.23548889 C37.17847107 8.95188538 37.17847107 8.95188538 35.94358826 9.68275452 C34.3383131 10.6405345 32.73410921 11.60011272 31.13108826 12.56166077 C30.42339294 12.98133118 29.71569763 13.40100159 28.98655701 13.83338928 C26.89654201 15.06950029 26.89654201 15.06950029 25.11643982 16.76185608 C22.022032 18.6963825 19.61496612 18.45929746 15.99046326 18.41322327 C15.00013092 18.406856 15.00013092 18.406856 13.98979187 18.40036011 C11.89063435 18.38362886 9.79245329 18.34599003 7.69358826 18.30775452 C6.26651884 18.29270036 4.83943429 18.27901323 3.41233826 18.26673889 C-0.07755991 18.23374453 -3.56689045 18.18200194 -7.05641174 18.12025452 C-6.47445091 13.87106627 -5.81856526 9.84725344 -4.55641174 5.74525452 C-4.29859924 4.89189514 -4.04078674 4.03853577 -3.77516174 3.15931702 C-2.71754927 0.15891641 -2.71754927 0.15891641 0 0 Z " fill="#5E85CE" transform="translate(238.05641174316406,246.87974548339844)"/>
<path d="M0 0 C0.73573242 -0.00478363 1.47146484 -0.00956726 2.22949219 -0.01449585 C3.77931873 -0.0178863 5.32921761 -0.00874342 6.87890625 0.01220703 C9.24381786 0.03899248 11.60398502 0.01243833 13.96875 -0.01953125 C15.47917708 -0.01622699 16.98960123 -0.0098204 18.5 0 C19.5533252 -0.01518173 19.5533252 -0.01518173 20.62792969 -0.03067017 C24.46513079 0.06038423 26.14818158 0.58376571 29.1953125 2.98681641 C31.25 5.6640625 31.25 5.6640625 31.875 9.1640625 C31.07615732 13.63758153 29.79145247 14.86853433 26.25 17.6640625 C23.45894847 18.17662371 21.28435447 18.39097385 18.5 18.36328125 C17.76426758 18.37043655 17.02853516 18.37759186 16.27050781 18.38496399 C14.7207154 18.39272076 13.17081319 18.38777146 11.62109375 18.37084961 C9.25570878 18.35160894 6.89619464 18.39103201 4.53125 18.43554688 C3.02082985 18.43583725 1.51040434 18.43269691 0 18.42578125 C-0.7022168 18.44106369 -1.40443359 18.45634613 -2.12792969 18.47209167 C-4.91937184 18.40616993 -7.11487499 18.1815832 -9.31982422 16.38491821 C-11.52744715 13.85378291 -12.70118612 11.90325052 -13.375 8.6015625 C-11.8437414 1.40464706 -6.62392157 -0.09547156 0 0 Z " fill="#86B3EF" transform="translate(259.75,379.3359375)"/>
<path d="M0 0 C0.76171509 -0.0038269 1.52343018 -0.00765381 2.30822754 -0.01159668 C3.91529668 -0.01431313 5.52241024 -0.00697044 7.12939453 0.00976562 C9.58596587 0.03118214 12.03961311 0.00995822 14.49609375 -0.015625 C16.05990227 -0.01298167 17.62370898 -0.00785658 19.1875 0 C20.28608337 -0.01214539 20.28608337 -0.01214539 21.40686035 -0.02453613 C24.88469772 0.03924562 26.76161051 0.27532681 29.55249023 2.42578125 C31.31497866 4.83346384 31.6613179 6.07159753 31.65625 9.03125 C31.67816406 9.7840625 31.70007813 10.536875 31.72265625 11.3125 C30.76764121 14.68174562 29.00026932 15.6527966 26.09375 17.53125 C23.43879407 17.92190148 21.2093547 18.09400085 18.5625 18.0625 C17.84896362 18.0663269 17.13542725 18.07015381 16.40026855 18.07409668 C14.89752789 18.07680847 13.39473944 18.06949854 11.89208984 18.05273438 C9.60016013 18.03130992 7.31136421 18.05255639 5.01953125 18.078125 C3.55468063 18.07548159 2.08983194 18.07035632 0.625 18.0625 C-0.39551453 18.07464539 -0.39551453 18.07464539 -1.43664551 18.08703613 C-6.16342471 17.99451647 -8.60282136 16.89355008 -11.90625 13.53125 C-12.53515625 11.3125 -12.53515625 11.3125 -12.46875 9.03125 C-12.47003906 8.2784375 -12.47132812 7.525625 -12.47265625 6.75 C-10.81732003 0.26564845 -5.8234716 -0.06438138 0 0 Z " fill="#86B3EF" transform="translate(91.90625,379.46875)"/>
<path d="M0 0 C1.23234375 -0.02578125 2.4646875 -0.0515625 3.734375 -0.078125 C7.49052044 0.27244857 9.28730011 0.96936052 12.25 3.25 C14.59168764 6.76253146 14.74623677 8.11469356 14.25 12.25 C12.45006226 14.94990662 11.166227 16.7918865 8.25 18.25 C5.79512577 18.42721577 3.39438336 18.52736821 0.9375 18.5625 C-0.37863281 18.59988281 -1.69476563 18.63726562 -3.05078125 18.67578125 C-7.25222832 18.19219336 -8.81376487 17.21928843 -11.75 14.25 C-13.19430855 11.36138291 -13.12688506 9.45352299 -12.75 6.25 C-10.3125 3.4375 -10.3125 3.4375 -7.75 1.25 C-5.83392105 -0.66607895 -2.54780909 0.03171547 0 0 Z " fill="#85B2EF" transform="translate(153.75,343.75)"/>
<path d="M0 0 C1.19625 0.00128906 2.3925 0.00257813 3.625 0.00390625 C7.23630324 0.4678584 9.11962478 1.25150095 12 3.4375 C14 6.4375 14 6.4375 13.875 9.875 C12.93034068 13.72111296 12.05957584 15.0269251 9 17.4375 C6.19892988 18.83803506 3.81108319 18.6450504 0.6875 18.6875 C-0.44300781 18.71328125 -1.57351563 18.7390625 -2.73828125 18.765625 C-6.31299901 18.40601267 -8.13019843 17.54719196 -11 15.4375 C-13.08606926 12.78250276 -12.99879455 11.36999496 -12.9375 7.9375 C-11.09828994 1.07111576 -6.63326611 -0.10721874 0 0 Z " fill="#5C83CE" transform="translate(410,308.5625)"/>
<path d="M0 0 C1.83498047 -0.03867187 1.83498047 -0.03867187 3.70703125 -0.078125 C7.41305603 0.27126454 9.25179871 1.01430881 12.1875 3.25 C13.78001643 6.43503287 13.57879761 9.7832405 13.1875 13.25 C11.44496655 16.48613354 10.71564056 17.07395315 7.1875 18.25 C4.89988153 18.42143087 2.60607031 18.51643463 0.3125 18.5625 C-0.90179688 18.59988281 -2.11609375 18.63726562 -3.3671875 18.67578125 C-7.43220339 18.17341534 -9.00959406 17.19227695 -11.8125 14.25 C-12.96146404 11.58673312 -13.12081044 9.12756415 -12.8125 6.25 C-9.23630458 0.45409708 -6.55098406 0.08231603 0 0 Z " fill="#86B3EF" transform="translate(109.8125,343.75)"/>
<path d="M0 0 C0.75474609 -0.01095703 1.50949219 -0.02191406 2.28710938 -0.03320312 C5.82540119 0.01355844 8.02618176 0.26722766 10.9296875 2.3515625 C12.74513141 5.01358648 12.9585878 7.27468598 13.06640625 10.46484375 C12.03212681 13.91458326 10.26387999 15.39065011 7.4375 17.5625 C4.5077022 18.04138066 2.27645587 18.22339951 -0.625 18.125 C-1.33205078 18.13595703 -2.03910156 18.14691406 -2.76757812 18.15820312 C-6.27083788 18.10886144 -8.21091167 17.8384658 -10.99609375 15.65234375 C-13.62018664 12.15137194 -14.07881515 9.95117882 -13.5625 5.5625 C-9.54357357 0.17761233 -6.27726355 -0.19936374 0 0 Z " fill="#86B3EF" transform="translate(322.5625,379.4375)"/>
<path d="M0 0 C1.30066406 0.02191406 2.60132813 0.04382813 3.94140625 0.06640625 C7.08860732 0.4004667 8.87961421 0.64998923 11.4375 2.4375 C13.93781654 6.18797482 13.97353554 7.99606266 13.4375 12.4375 C11.44101439 15.13079823 9.85055023 17.08863822 6.49731445 17.91650391 C4.2689057 18.11045658 2.11070007 18.12007168 -0.125 18.0625 C-0.87974609 18.08183594 -1.63449219 18.10117187 -2.41210938 18.12109375 C-6.30737541 18.08677423 -8.16770509 17.80506768 -11.0546875 15.1171875 C-13.05983212 11.55364033 -13.2101529 9.46734029 -12.5625 5.4375 C-8.76102322 0.4768608 -6.14237256 -0.18908992 0 0 Z " fill="#5C83CE" transform="translate(180.5625,414.5625)"/>
<path d="M0 0 C0.99 0.33 1.98 0.66 3 1 C4.69986903 1.10154275 6.40338973 1.14626252 8.10624695 1.15821838 C9.69008682 1.17290161 9.69008682 1.17290161 11.30592346 1.18788147 C12.46397995 1.19363693 13.62203644 1.1993924 14.81518555 1.20532227 C16.64463715 1.22017166 16.64463715 1.22017166 18.51104736 1.23532104 C21.85579915 1.26151521 25.20052699 1.28337461 28.54531837 1.30332303 C32.04072117 1.3251893 35.53608057 1.35257485 39.03144836 1.37937927 C45.650569 1.42929749 52.26971374 1.47423955 58.8888815 1.51740164 C66.4245074 1.56678145 73.96008975 1.62169682 81.49567354 1.67708123 C96.99707546 1.7908879 112.49851742 1.89772981 128 2 C128 2.33 128 2.66 128 3 C84.77 3 41.54 3 -3 3 C-2.01 2.01 -1.02 1.02 0 0 Z " fill="#F4D2B2" transform="translate(89,306)"/>
<path d="M0 0 C4.90063275 2.60033574 4.90063275 2.60033574 6.1015625 6.203125 C-1.1584375 6.203125 -8.4184375 6.203125 -15.8984375 6.203125 C-12.76311924 -0.06751152 -6.77752039 -2.8448851 0 0 Z " fill="#6A3F48" transform="translate(316.8984375,302.796875)"/>
</svg>
